 <svg version="1.0" xmlns="http://www.w3.org/2000/svg" width="700.000000pt" height="711.000000pt" viewBox="0 0 700.000000 711.000000" preserveAspectRatio="xMidYMid meet">
<metadata>
Created by potrace 1.12, written by Peter Selinger 2001-2015
</metadata>
<g transform="translate(0.000000,711.000000) scale(0.100000,-0.100000)" fill="#000000" stroke="none">
<path d="M2860 5981 c0 -10 109 -17 198 -13 113 7 65 22 -68 22 -71 0 -130 -4
-130 -9z"></path>
<path d="M3640 5981 c0 -6 48 -11 123 -13 128 -3 135 -3 123 10 -12 12 -246
15 -246 3z"></path>
<path d="M3640 5930 c0 -5 11 -10 25 -10 14 0 25 5 25 10 0 6 -11 10 -25 10
-14 0 -25 -4 -25 -10z"></path>
<path d="M4035 5911 c-12 -5 -27 -16 -34 -25 -7 -9 -20 -16 -27 -16 -29 0 -13
-19 21 -26 66 -12 149 0 174 25 19 19 21 25 10 32 -8 5 -23 9 -34 9 -11 0 -36
2 -55 5 -19 3 -44 1 -55 -4z"></path>
<path d="M2574 5899 c-9 -15 12 -33 27 -23 8 4 24 8 38 8 13 1 26 7 28 14 6
15 -83 17 -93 1z"></path>
<path d="M4295 5831 c-6 -5 -28 -15 -51 -23 -22 -7 -42 -17 -44 -23 -6 -15 95
-28 137 -18 47 11 57 48 17 63 -32 12 -47 13 -59 1z"></path>
<path d="M2344 5815 c-18 -14 -18 -14 8 -15 15 0 30 -4 33 -10 8 -13 65 -13
65 0 0 25 -80 44 -106 25z"></path>
<path d="M4455 5753 c-11 -3 -25 -11 -31 -19 -7 -8 -16 -13 -20 -12 -5 2 -11
-1 -14 -7 -8 -17 62 -35 110 -28 58 7 86 21 71 36 -10 10 -81 38 -91 36 -3 -1
-14 -3 -25 -6z"></path>
<path d="M2184 5736 c-26 -19 -15 -27 28 -20 26 5 35 11 31 20 -7 18 -34 18
-59 0z"></path>
<path d="M4588 5663 c-43 -17 -47 -27 -17 -44 33 -17 87 -15 107 5 16 16 16
18 -7 37 -28 23 -34 23 -83 2z"></path>
<path d="M2075 5660 c-8 -13 13 -40 31 -40 20 0 27 19 14 35 -14 17 -36 19
-45 5z"></path>
<path d="M1927 5582 c-21 -23 -13 -32 25 -32 25 0 29 4 26 22 -4 29 -29 34
-51 10z"></path>
<path d="M4688 5583 c-21 -26 4 -48 59 -51 38 -2 53 1 66 16 24 26 7 38 -60
44 -39 4 -56 1 -65 -9z"></path>
<path d="M1838 5509 c-28 -16 -21 -27 15 -24 19 1 32 8 32 16 0 17 -25 22 -47
8z"></path>
<path d="M4828 5509 c-23 -13 -23 -32 1 -53 36 -33 111 13 80 50 -13 16 -56
18 -81 3z"></path>
<path d="M4909 5428 c-14 -26 5 -55 41 -63 19 -4 36 -17 45 -35 8 -16 27 -35
42 -42 15 -7 34 -25 41 -40 6 -14 26 -31 42 -37 17 -5 34 -21 39 -33 13 -35
38 -53 54 -39 19 15 27 4 21 -28 -7 -34 22 -63 54 -54 18 4 21 10 17 35 -8 44
-33 88 -50 88 -8 0 -22 12 -32 28 -36 57 -173 181 -173 156 0 -3 33 -37 73
-75 39 -38 63 -66 52 -62 -16 5 -18 4 -7 -8 23 -24 12 -33 -13 -9 -13 12 -22
27 -19 31 3 5 2 14 -2 20 -4 8 -9 8 -13 1 -4 -7 -34 16 -73 52 -61 59 -64 64
-47 77 18 13 18 14 -2 36 -26 26 -76 27 -90 1z m331 -253 c10 -12 10 -15 -3
-15 -8 0 -17 7 -21 15 -3 8 -2 15 3 15 5 0 14 -7 21 -15z"></path>
<path d="M1715 5419 c-11 -17 0 -20 21 -4 17 13 17 14 2 15 -9 0 -20 -5 -23
-11z"></path>
<path d="M1628 5349 c-10 -5 -18 -20 -18 -31 0 -21 0 -21 25 2 37 34 32 52 -7
29z"></path>
<path d="M1546 5261 c-30 -33 -12 -44 19 -11 20 21 24 30 13 30 -8 0 -23 -9
-32 -19z"></path>
<path d="M1473 5188 c-6 -7 -13 -22 -17 -33 -6 -17 -4 -17 18 4 14 13 23 28
20 32 -7 12 -10 11 -21 -3z"></path>
<path d="M1392 5088 c-14 -14 -16 -28 -3 -28 9 0 24 30 18 36 -2 2 -9 -2 -15
-8z"></path>
<path d="M5324 5067 c-20 -24 -24 -62 -8 -85 16 -24 22 -26 42 -14 20 13 23
52 6 83 -16 32 -23 35 -40 16z"></path>
<path d="M4216 5022 c-7 -12 4 -72 13 -72 4 0 12 5 18 11 9 9 11 7 6 -9 -3
-12 -11 -27 -19 -33 -8 -6 -14 -28 -14 -48 0 -20 -6 -58 -13 -86 -11 -43 -17
-50 -40 -53 -21 -3 -27 -9 -27 -26 0 -13 -5 -37 -11 -55 -8 -23 -17 -31 -35
-31 -27 0 -28 -2 -40 -75 -8 -43 -12 -50 -32 -50 -32 0 -42 -21 -42 -88 0 -69
-13 -100 -39 -92 -14 4 -20 -1 -26 -22 -8 -32 -7 -447 2 -469 3 -9 13 -12 24
-9 26 9 39 -23 39 -97 0 -71 3 -77 45 -98 27 -14 30 -21 31 -64 1 -53 8 -63
44 -68 20 -2 26 -10 30 -38 8 -50 93 -139 118 -124 9 6 18 23 20 38 3 23 0 26
-28 26 -24 0 -35 7 -48 31 -9 17 -33 53 -53 78 -20 26 -40 58 -44 72 -4 13
-20 45 -36 70 -16 25 -32 61 -36 80 -8 43 -30 96 -42 104 -7 4 -7 15 0 33 13
35 4 99 -21 140 -27 43 -26 111 1 157 17 29 20 47 17 92 -4 44 -1 60 12 73 10
10 23 41 29 70 6 29 24 69 40 89 16 20 32 47 36 61 4 14 21 41 36 60 28 34 56
82 101 168 18 33 27 42 49 42 14 0 40 3 58 6 27 6 32 3 41 -21 5 -14 23 -45
39 -69 16 -23 34 -62 41 -86 6 -25 28 -69 48 -99 l37 -53 0 -202 -1 -201 -52
-105 c-29 -59 -52 -110 -52 -115 0 -5 14 4 30 20 17 16 30 39 30 53 0 29 15
59 49 95 l26 28 3 224 3 224 -26 17 c-37 24 -46 47 -54 128 -5 60 -9 71 -26
74 -39 8 -55 32 -55 86 0 50 -1 52 -32 61 -28 9 -33 15 -36 45 -4 42 -26 62
-61 54 -20 -4 -23 -3 -11 5 12 8 12 15 4 28 -12 20 -59 30 -68 15z"></path>
<path d="M1300 4961 c-16 -30 -5 -53 22 -49 29 4 31 18 9 47 l-19 24 -12 -22z"></path>
<path d="M5404 4968 c-18 -9 -21 -16 -16 -56 6 -62 23 -82 44 -50 27 40 31 82
11 100 -13 12 -23 13 -39 6z"></path>
<path d="M1227 4873 c-4 -3 -7 -17 -7 -30 0 -35 34 -26 38 10 3 26 -14 37 -31
20z"></path>
<path d="M5470 4831 c-10 -39 -6 -86 9 -96 16 -9 50 8 55 29 7 29 -18 100 -37
104 -11 2 -19 -9 -27 -37z"></path>
<path d="M5551 4731 c-16 -10 -11 -125 6 -142 18 -18 57 48 54 90 -3 53 -26
73 -60 52z"></path>
<path d="M1140 4715 c-11 -13 -10 -19 5 -35 28 -31 47 -26 43 12 -3 37 -27 48
-48 23z"></path>
<path d="M1071 4562 c-8 -16 -7 -25 8 -43 10 -12 23 -19 29 -15 18 11 14 41
-7 60 -19 17 -20 17 -30 -2z"></path>
<path d="M5637 4562 c-25 -27 -22 -142 3 -142 4 0 19 12 34 27 24 23 26 32 20
67 -6 40 -19 66 -34 66 -4 0 -14 -8 -23 -18z"></path>
<path d="M5738 4414 c-4 -3 -4 -13 -1 -21 3 -8 -3 -21 -16 -29 -18 -13 -21
-25 -21 -78 0 -34 3 -66 6 -69 4 -4 20 3 37 15 29 21 29 22 25 95 -5 69 -16
102 -30 87z"></path>
<path d="M986 4394 c-7 -19 -8 -64 -1 -64 3 0 14 9 25 20 16 16 18 25 10 40
-13 24 -26 26 -34 4z"></path>
<path d="M5820 4154 c0 -14 -9 -37 -20 -51 -17 -22 -20 -41 -20 -129 0 -57 2
-104 5 -104 3 0 19 15 35 33 28 30 29 36 30 123 0 99 -7 154 -21 154 -5 0 -9
-12 -9 -26z"></path>
<path d="M900 4080 c0 -47 4 -80 10 -80 6 0 10 33 10 80 0 47 -4 80 -10 80 -6
0 -10 -33 -10 -80z"></path>
<path d="M4840 4085 c-8 -10 -9 -33 -4 -82 14 -117 8 -162 -31 -212 -19 -24
-35 -50 -35 -56 0 -15 -42 -55 -58 -55 -6 0 -18 -16 -26 -35 -8 -19 -23 -38
-33 -42 -10 -3 -29 -16 -43 -28 -26 -23 -106 -40 -115 -24 -3 4 12 17 33 28
21 11 46 31 56 45 9 14 21 26 28 26 18 0 104 94 111 122 4 15 15 35 25 45 30
30 48 66 55 106 11 73 -22 37 -49 -53 -8 -26 -20 -50 -28 -53 -8 -3 -24 -27
-37 -52 -13 -26 -33 -51 -45 -56 -12 -4 -34 -24 -49 -43 -15 -20 -34 -36 -42
-36 -7 0 -28 -15 -46 -33 -19 -18 -47 -42 -63 -54 -39 -29 -22 -45 53 -51 70
-5 110 9 123 43 10 26 46 41 78 31 24 -8 46 16 38 42 -8 23 9 39 44 44 23 3
26 9 33 65 7 52 13 66 37 83 30 22 45 74 41 147 -2 23 3 59 9 79 12 35 11 39
-10 56 -27 22 -34 22 -50 3z"></path>
<path d="M4390 3795 c-14 -24 -52 -86 -84 -136 -46 -71 -60 -102 -64 -140 -3
-32 -1 -49 7 -49 6 0 11 8 11 19 0 33 30 105 54 131 13 14 31 42 39 62 9 20
24 41 36 47 11 6 25 28 31 49 21 76 7 84 -30 17z"></path>
<path d="M5900 3738 c-1 -24 -5 -61 -10 -83 -5 -22 -14 -62 -20 -90 -6 -27
-11 -119 -11 -203 0 -120 3 -160 16 -185 9 -18 19 -51 22 -74 9 -70 20 -49 28
54 9 120 -4 623 -16 623 -5 0 -9 -19 -9 -42z"></path>
<path d="M820 3690 c0 -40 4 -70 10 -70 6 0 10 30 10 70 0 40 -4 70 -10 70 -6
0 -10 -30 -10 -70z"></path>
<path d="M827 3393 c-6 -195 -5 -224 9 -211 10 11 18 418 7 418 -6 0 -12 -81
-16 -207z"></path>
<path d="M4388 3448 c-30 -11 -38 -28 -12 -28 21 0 54 18 54 30 0 12 -6 12
-42 -2z"></path>
<path d="M2326 3138 c-9 -12 -16 -29 -16 -36 0 -8 -8 -27 -17 -43 -21 -35 -15
-42 39 -43 40 -1 42 1 49 32 4 18 14 41 23 51 15 16 14 19 -14 39 -37 28 -45
27 -64 0z"></path>
<path d="M2561 3136 c-26 -28 -19 -36 39 -46 l35 -5 -2 -120 c-1 -66 -2 -133
-3 -150 0 -16 2 -84 6 -150 6 -119 7 -120 42 -160 45 -51 61 -59 95 -46 31 12
34 27 10 61 -31 44 -65 200 -44 200 7 0 11 41 11 126 0 121 -1 126 -20 121
-14 -4 -20 0 -21 11 -3 74 -16 140 -31 159 -5 7 -22 12 -36 11 -15 -1 -34 2
-42 6 -10 4 -24 -2 -39 -18z m166 -378 c-3 -8 -6 -5 -6 6 -1 11 2 17 5 13 3
-3 4 -12 1 -19z"></path>
<path d="M3358 3155 c-4 -4 -22 -10 -40 -14 -24 -5 -33 -12 -33 -26 0 -11 7
-21 15 -22 8 -1 45 -5 82 -8 61 -6 70 -10 90 -38 22 -31 23 -41 28 -312 l5
-280 40 3 c58 5 73 23 56 65 -10 22 -15 96 -19 245 -4 193 -2 215 14 233 9 10
26 19 36 19 30 0 15 24 -18 30 -21 4 -34 15 -46 42 -10 21 -27 42 -37 48 -25
13 -163 25 -173 15z"></path>
<path d="M3760 3142 c-39 -31 -21 -49 54 -54 63 -4 66 -5 108 -52 24 -27 45
-54 48 -60 3 -6 3 -118 0 -250 -4 -187 -2 -243 8 -257 14 -21 37 -25 47 -9 9
14 6 575 -3 625 -6 32 -12 40 -29 40 -11 0 -29 7 -39 16 -29 25 -164 25 -194
1z"></path>
<path d="M4322 3153 c-12 -2 -27 -14 -33 -26 -10 -17 -9 -23 6 -32 61 -36 57
-14 59 -336 l1 -294 38 -3 37 -3 0 315 c0 173 3 321 6 329 3 9 -4 25 -15 36
-20 20 -47 24 -99 14z"></path>
<path d="M4689 3138 c-8 -15 -8 -37 1 -82 17 -89 18 -90 34 -77 22 19 26 -19
20 -209 -7 -199 -22 -292 -23 -142 -1 54 -5 92 -11 92 -6 0 -10 -39 -10 -97 0
-54 -3 -108 -6 -120 -4 -15 -1 -24 7 -26 8 -3 31 -10 52 -16 66 -22 68 -17 66
214 -1 112 1 207 4 212 4 6 3 33 -2 61 -8 54 -1 72 31 72 26 0 22 19 -6 29
-17 7 -25 20 -30 51 -7 44 -9 46 -74 53 -35 4 -44 2 -53 -15z"></path>
<path d="M4978 3153 c-37 -4 -66 -32 -53 -52 3 -5 36 -12 73 -16 37 -3 81 -8
99 -11 28 -4 33 -1 39 20 3 13 1 34 -6 45 -11 22 -47 25 -152 14z"></path>
<path d="M3036 3135 c-10 -8 -24 -16 -30 -18 -7 -3 -5 -11 5 -23 9 -10 20 -35
24 -54 12 -60 15 -268 6 -415 -6 -91 -6 -144 0 -152 6 -7 32 -11 62 -10 l52 2
2 265 c3 251 4 266 23 282 25 21 25 34 1 41 -12 3 -21 15 -23 33 -5 48 -82 79
-122 49z m90 -252 c-2 -71 -5 -157 -6 -193 -1 -58 -2 -63 -15 -46 -8 10 -19
15 -26 11 -9 -6 -11 29 -7 155 5 157 6 164 29 181 13 10 25 19 27 19 2 0 1
-57 -2 -127z"></path>
<path d="M5778 2933 c-3 -94 2 -127 23 -149 10 -11 19 -26 19 -32 0 -17 17
-15 24 4 10 26 7 164 -4 185 -6 10 -17 19 -25 19 -8 0 -15 7 -15 15 0 8 -4 15
-10 15 -5 0 -11 -26 -12 -57z"></path>
<path d="M900 2871 c0 -44 5 -83 10 -86 6 -4 10 25 10 79 0 51 -4 86 -10 86
-6 0 -10 -33 -10 -79z"></path>
<path d="M2402 2829 c-30 -12 -19 -29 19 -29 16 0 38 -5 48 -12 23 -14 92 0
99 19 9 28 -112 44 -166 22z"></path>
<path d="M2278 2718 c-35 -39 -38 -45 -38 -103 0 -60 1 -62 50 -110 l51 -50
78 -3 c90 -5 124 7 119 41 -3 20 -11 23 -72 28 -61 5 -72 9 -93 35 -13 16 -26
37 -29 47 -3 10 -12 16 -19 14 -12 -5 -35 32 -35 57 0 7 9 21 19 30 19 17 20
17 31 -3 15 -28 28 -26 40 5 13 33 -2 54 -38 54 -17 0 -38 -14 -64 -42z"></path>
<path d="M5712 2678 c-6 -6 -12 -33 -12 -58 0 -36 6 -54 25 -76 21 -24 27 -27
35 -14 6 8 9 47 8 85 -3 61 -5 70 -23 73 -11 1 -26 -3 -33 -10z"></path>
<path d="M982 2593 c2 -14 8 -28 14 -30 7 -2 9 8 6 27 -5 37 -25 40 -20 3z"></path>
<path d="M1570 2530 c0 -26 12 -60 21 -60 14 0 10 34 -6 56 -11 14 -14 15 -15
4z"></path>
<path d="M5626 2468 c-12 -46 -6 -83 18 -105 27 -26 39 -18 51 35 6 28 2 36
-25 62 -18 17 -33 30 -35 30 -1 0 -5 -10 -9 -22z"></path>
<path d="M1077 2432 c-13 -2 -17 -11 -15 -30 4 -35 21 -38 38 -7 15 28 6 44
-23 37z"></path>
<path d="M1620 2431 c0 -5 9 -29 20 -54 19 -44 36 -64 45 -55 8 8 -17 83 -33
101 -16 18 -32 23 -32 8z"></path>
<path d="M1605 2330 c-7 -12 2 -30 16 -30 12 0 12 27 0 35 -5 3 -12 1 -16 -5z"></path>
<path d="M5550 2314 c-6 -14 -10 -43 -10 -64 0 -30 4 -40 20 -45 45 -14 72 41
41 84 -12 16 -21 34 -21 40 0 21 -21 11 -30 -15z"></path>
<path d="M1700 2275 c0 -26 -3 -33 -15 -29 -8 4 -15 1 -15 -5 0 -17 48 -108
60 -116 21 -13 21 3 1 44 -28 54 -26 70 4 41 13 -12 22 -27 19 -32 -3 -5 -1
-7 4 -6 5 2 35 -26 65 -62 31 -36 65 -73 74 -82 10 -10 25 -25 33 -33 100
-101 192 -187 233 -218 28 -22 66 -51 83 -67 18 -15 46 -31 63 -35 17 -4 36
-16 42 -27 6 -11 32 -30 59 -42 26 -12 61 -34 78 -48 17 -14 49 -29 71 -33 22
-4 56 -19 76 -35 31 -25 107 -50 149 -50 8 0 19 -7 27 -16 21 -26 64 -43 146
-58 43 -8 106 -26 140 -40 47 -20 96 -29 215 -41 84 -8 158 -15 165 -15 15 0
37 39 28 48 -3 4 -92 9 -198 13 -207 7 -252 16 -242 49 8 24 -7 28 -127 33
-90 3 -128 18 -108 42 18 21 -11 32 -98 37 -45 3 -85 8 -88 11 -4 4 -1 14 6
22 20 24 2 34 -70 41 -80 8 -100 17 -93 43 4 16 -1 21 -23 26 -79 16 -88 21
-94 45 -4 18 -17 27 -58 38 -40 11 -57 22 -67 43 -9 17 -26 30 -45 34 -21 5
-42 21 -61 48 -19 26 -38 42 -51 42 -15 0 -24 10 -33 34 -7 23 -22 39 -45 50
-26 12 -36 24 -38 44 -3 20 -9 27 -26 27 -28 0 -46 18 -46 47 0 17 -9 28 -31
37 -19 8 -37 26 -45 45 -7 17 -24 35 -37 40 -15 6 -27 21 -32 38 -7 29 -32 63
-47 63 -4 0 -8 -16 -8 -35z"></path>
<path d="M1146 2269 c-11 -17 -12 -25 -3 -40 16 -26 31 -24 47 5 25 47 -14 78
-44 35z"></path>
<path d="M5472 2193 c-6 -10 -10 -38 -10 -63 -1 -34 4 -49 17 -57 27 -17 47
10 55 73 6 48 5 52 -16 58 -33 8 -36 8 -46 -11z"></path>
<path d="M1216 2124 c-7 -18 18 -64 35 -64 10 0 4 52 -8 73 -7 12 -21 8 -27
-9z"></path>
<path d="M1770 2081 c0 -14 16 -41 40 -67 22 -24 40 -50 40 -58 0 -8 16 -27
35 -42 19 -15 38 -37 41 -51 4 -13 22 -35 40 -50 19 -14 34 -30 34 -35 0 -10
71 -77 112 -106 31 -23 20 4 -22 49 -95 103 -117 128 -155 178 -22 28 -58 74
-80 101 -22 27 -50 62 -62 77 l-22 28 -1 -24z"></path>
<path d="M5396 2061 c-13 -14 -15 -27 -8 -57 10 -47 33 -55 56 -19 31 48 -11
117 -48 76z"></path>
<path d="M1294 2027 c-7 -20 15 -62 27 -50 4 4 10 19 11 33 3 28 -28 42 -38
17z"></path>
<path d="M5315 1957 c-14 -21 -14 -27 1 -55 8 -18 13 -36 9 -42 -3 -5 1 -10 9
-10 20 0 39 37 41 80 2 53 -33 68 -60 27z"></path>
<path d="M5242 1878 c-7 -7 -12 -20 -12 -30 0 -10 -13 -24 -30 -33 -16 -8 -37
-29 -45 -45 -9 -17 -20 -30 -26 -30 -6 0 -24 -9 -40 -21 -32 -23 -39 -51 -11
-48 30 3 35 -1 22 -16 -10 -12 -24 -14 -59 -9 -52 7 -98 -7 -108 -33 -10 -26
-34 -42 -63 -43 -32 -1 -75 -25 -75 -41 0 -21 -46 -39 -100 -39 -45 0 -53 -4
-86 -40 -36 -39 -39 -40 -102 -40 -70 0 -122 -14 -112 -30 3 -5 -9 -17 -27
-26 -27 -14 -70 -18 -218 -22 -147 -3 -191 -8 -214 -21 -16 -9 -37 -20 -47
-26 -21 -11 -25 -25 -8 -25 5 0 40 4 77 9 37 6 93 12 125 15 55 4 57 4 57 -19
0 -41 -11 -55 -63 -82 -28 -14 -74 -41 -102 -59 -59 -40 -82 -42 -245 -30
-114 9 -209 -2 -425 -49 -60 -13 -118 -25 -128 -27 -16 -3 -17 -5 -3 -23 14
-19 28 -20 238 -23 123 -1 268 -2 322 -2 96 1 142 11 131 30 -3 5 7 17 22 27
21 14 55 19 152 23 114 5 126 7 124 23 -2 27 54 58 102 56 80 -3 95 0 104 24
14 36 40 51 87 52 34 0 47 5 59 23 20 27 84 60 108 54 12 -2 33 13 62 44 38
41 48 46 73 41 33 -7 62 16 62 47 0 10 11 19 31 23 17 3 40 19 54 38 15 18 42
37 66 45 22 8 49 26 59 40 11 15 33 33 49 40 17 6 37 23 46 37 9 13 30 29 46
35 19 7 35 22 44 44 8 19 25 38 38 43 30 12 54 65 38 85 -6 7 -9 21 -5 30 7
19 -25 23 -44 4z m12 -67 c7 -10 -22 -37 -30 -28 -9 8 3 37 15 37 5 0 12 -4
15 -9z m-74 -80 c0 -13 -26 -32 -33 -24 -8 7 11 33 24 33 5 0 9 -4 9 -9z"></path>
<path d="M1460 1786 c0 -9 7 -19 15 -23 25 -9 27 2 5 22 -18 17 -20 17 -20 1z"></path>
<path d="M1520 1722 c0 -19 33 -52 52 -52 18 0 16 4 -12 30 -34 31 -40 35 -40
22z"></path>
<path d="M1610 1625 c0 -15 38 -40 47 -31 7 7 -26 46 -39 46 -4 0 -8 -7 -8
-15z"></path>
<path d="M2150 1626 c0 -20 165 -163 212 -183 15 -7 33 -24 38 -38 5 -14 17
-25 27 -25 10 0 42 -18 71 -40 29 -22 59 -40 67 -40 8 0 33 -16 55 -37 25 -22
60 -41 91 -49 28 -7 73 -30 101 -50 37 -28 63 -38 100 -42 67 -6 57 12 -19 34
-31 9 -73 29 -94 44 -21 14 -59 35 -86 45 -26 10 -59 28 -73 41 -14 12 -46 32
-71 43 -51 21 -165 105 -173 127 -3 8 -18 19 -32 25 -27 10 -60 35 -153 117
-52 45 -61 50 -61 28z"></path>
<path d="M1700 1552 c0 -10 21 -32 32 -32 16 0 8 19 -12 30 -11 6 -20 7 -20 2z"></path>
<path d="M1930 1395 c-10 -12 -10 -18 0 -30 7 -8 18 -15 26 -15 16 0 37 37 29
50 -9 15 -41 12 -55 -5z"></path>
<path d="M2095 1280 c3 -5 8 -10 11 -10 2 0 4 5 4 10 0 6 -5 10 -11 10 -5 0
-7 -4 -4 -10z"></path>
<path d="M3590 1261 c0 -12 122 -21 195 -14 113 10 81 22 -60 22 -74 0 -135
-4 -135 -8z"></path>
<path d="M2172 1218 c5 -15 68 -30 68 -16 0 8 -42 28 -61 28 -6 0 -9 -6 -7
-12z"></path>
<path d="M2342 1139 c5 -17 98 -26 98 -10 0 6 -8 11 -19 11 -10 0 -33 3 -51 7
-25 5 -32 3 -28 -8z"></path>
<path d="M2540 1061 c0 -15 28 -21 91 -21 59 0 79 12 37 24 -35 9 -128 7 -128
-3z"></path>
<path d="M2855 991 c-3 -5 0 -13 6 -16 15 -10 249 5 249 16 0 12 -247 12 -255
0z"></path>
</g>
</svg>